<mxfile host="Electron" modified="2024-04-11T03:23:33.779Z" agent="Mozilla/5.0 (Windows NT 10.0; Win64; x64) AppleWebKit/537.36 (KHTML, like Gecko) draw.io/24.1.0 Chrome/120.0.6099.109 Electron/28.1.0 Safari/537.36" etag="caiwZsNDOQ4IK-VuH2U7" version="24.1.0" type="device">
  <diagram name="第 1 页" id="SA-79SCYpRqi3of1wQz4">
    <mxGraphModel dx="1100" dy="650" grid="1" gridSize="10" guides="1" tooltips="1" connect="1" arrows="1" fold="1" page="1" pageScale="1" pageWidth="827" pageHeight="1169" math="0" shadow="0">
      <root>
        <mxCell id="0" />
        <mxCell id="1" parent="0" />
        <mxCell id="cxz1ZCRF8DonMPcmguwD-3" style="edgeStyle=orthogonalEdgeStyle;rounded=0;orthogonalLoop=1;jettySize=auto;html=1;exitX=1;exitY=0.25;exitDx=0;exitDy=0;entryX=0;entryY=0.25;entryDx=0;entryDy=0;strokeWidth=3;strokeColor=#FF0080;" edge="1" parent="1" source="cxz1ZCRF8DonMPcmguwD-1" target="cxz1ZCRF8DonMPcmguwD-2">
          <mxGeometry relative="1" as="geometry" />
        </mxCell>
        <mxCell id="cxz1ZCRF8DonMPcmguwD-11" style="edgeStyle=orthogonalEdgeStyle;rounded=0;orthogonalLoop=1;jettySize=auto;html=1;fontColor=#FF33FF;strokeColor=#ff0000;strokeWidth=3;" edge="1" parent="1" source="cxz1ZCRF8DonMPcmguwD-1" target="cxz1ZCRF8DonMPcmguwD-10">
          <mxGeometry relative="1" as="geometry" />
        </mxCell>
        <mxCell id="cxz1ZCRF8DonMPcmguwD-1" value="Wechaty and Webhook" style="rounded=0;whiteSpace=wrap;html=1;fillColor=#d5e8d4;strokeColor=#82b366;fontSize=18;" vertex="1" parent="1">
          <mxGeometry x="70" y="90" width="200" height="270" as="geometry" />
        </mxCell>
        <mxCell id="cxz1ZCRF8DonMPcmguwD-4" style="edgeStyle=orthogonalEdgeStyle;rounded=0;orthogonalLoop=1;jettySize=auto;html=1;exitX=0;exitY=0.75;exitDx=0;exitDy=0;entryX=1;entryY=0.75;entryDx=0;entryDy=0;strokeWidth=3;strokeColor=#FF0080;" edge="1" parent="1" source="cxz1ZCRF8DonMPcmguwD-2" target="cxz1ZCRF8DonMPcmguwD-1">
          <mxGeometry relative="1" as="geometry" />
        </mxCell>
        <mxCell id="cxz1ZCRF8DonMPcmguwD-13" style="edgeStyle=orthogonalEdgeStyle;rounded=0;orthogonalLoop=1;jettySize=auto;html=1;strokeWidth=3;strokeColor=#FF99CC;" edge="1" parent="1" source="cxz1ZCRF8DonMPcmguwD-2" target="cxz1ZCRF8DonMPcmguwD-7">
          <mxGeometry relative="1" as="geometry" />
        </mxCell>
        <mxCell id="cxz1ZCRF8DonMPcmguwD-2" value="&lt;font style=&quot;font-size: 18px;&quot;&gt;Backend Service&lt;/font&gt;" style="rounded=0;whiteSpace=wrap;html=1;fillColor=#dae8fc;strokeColor=#6c8ebf;" vertex="1" parent="1">
          <mxGeometry x="390" y="90" width="190" height="270" as="geometry" />
        </mxCell>
        <mxCell id="cxz1ZCRF8DonMPcmguwD-5" value="HTTP" style="text;html=1;align=center;verticalAlign=middle;whiteSpace=wrap;rounded=0;" vertex="1" parent="1">
          <mxGeometry x="300" y="130" width="60" height="30" as="geometry" />
        </mxCell>
        <mxCell id="cxz1ZCRF8DonMPcmguwD-6" value="HTTP" style="text;html=1;align=center;verticalAlign=middle;whiteSpace=wrap;rounded=0;" vertex="1" parent="1">
          <mxGeometry x="300" y="260" width="60" height="30" as="geometry" />
        </mxCell>
        <mxCell id="cxz1ZCRF8DonMPcmguwD-14" style="edgeStyle=orthogonalEdgeStyle;rounded=0;orthogonalLoop=1;jettySize=auto;html=1;strokeWidth=3;strokeColor=#FF99CC;" edge="1" parent="1" source="cxz1ZCRF8DonMPcmguwD-7" target="cxz1ZCRF8DonMPcmguwD-2">
          <mxGeometry relative="1" as="geometry" />
        </mxCell>
        <mxCell id="cxz1ZCRF8DonMPcmguwD-7" value="&lt;font style=&quot;font-size: 19px;&quot;&gt;Kimi&lt;/font&gt;" style="ellipse;shape=cloud;whiteSpace=wrap;html=1;fillColor=#fad9d5;strokeColor=#ae4132;" vertex="1" parent="1">
          <mxGeometry x="720" y="170" width="150" height="110" as="geometry" />
        </mxCell>
        <mxCell id="cxz1ZCRF8DonMPcmguwD-12" style="edgeStyle=orthogonalEdgeStyle;rounded=0;orthogonalLoop=1;jettySize=auto;html=1;fontColor=#FF33FF;strokeColor=#ff0000;strokeWidth=3;" edge="1" parent="1" source="cxz1ZCRF8DonMPcmguwD-9" target="cxz1ZCRF8DonMPcmguwD-1">
          <mxGeometry relative="1" as="geometry" />
        </mxCell>
        <mxCell id="cxz1ZCRF8DonMPcmguwD-9" value="" style="rounded=1;whiteSpace=wrap;html=1;fillColor=#bac8d3;strokeColor=#23445d;" vertex="1" parent="1">
          <mxGeometry x="110" y="460" width="120" height="240" as="geometry" />
        </mxCell>
        <mxCell id="cxz1ZCRF8DonMPcmguwD-10" value="Wechat" style="text;html=1;align=center;verticalAlign=middle;whiteSpace=wrap;rounded=0;fontSize=17;fontColor=#000000;strokeWidth=3;" vertex="1" parent="1">
          <mxGeometry x="140" y="460" width="60" height="30" as="geometry" />
        </mxCell>
        <mxCell id="cxz1ZCRF8DonMPcmguwD-15" value="&lt;font style=&quot;font-size: 17px;&quot;&gt;Wechat&amp;nbsp;protocol &amp;nbsp;via webhook&lt;/font&gt;" style="text;html=1;align=center;verticalAlign=middle;whiteSpace=wrap;rounded=0;" vertex="1" parent="1">
          <mxGeometry x="170" y="400" width="240" height="30" as="geometry" />
        </mxCell>
        <mxCell id="cxz1ZCRF8DonMPcmguwD-16" value="HTTP" style="text;html=1;align=center;verticalAlign=middle;whiteSpace=wrap;rounded=0;" vertex="1" parent="1">
          <mxGeometry x="620" y="190" width="60" height="30" as="geometry" />
        </mxCell>
      </root>
    </mxGraphModel>
  </diagram>
</mxfile>
